<mxfile host="app.diagrams.net" modified="2022-12-26T08:36:19.111Z" agent="5.0 (Windows NT 10.0; Win64; x64) AppleWebKit/537.36 (KHTML, like Gecko) Chrome/107.0.0.0 Safari/537.36 OPR/93.0.0.0" etag="x38fYBcyJgoTSOAbuDe2" version="20.7.4" type="github">
  <diagram id="C5RBs43oDa-KdzZeNtuy" name="Page-1">
    <mxGraphModel dx="1393" dy="766" grid="1" gridSize="10" guides="1" tooltips="1" connect="1" arrows="1" fold="1" page="1" pageScale="1" pageWidth="1169" pageHeight="827" math="0" shadow="0">
      <root>
        <mxCell id="WIyWlLk6GJQsqaUBKTNV-0" />
        <mxCell id="WIyWlLk6GJQsqaUBKTNV-1" parent="WIyWlLk6GJQsqaUBKTNV-0" />
        <mxCell id="C67oyV5yBOLC5utlYlFn-113" value="" style="rounded=0;whiteSpace=wrap;html=1;fontSize=13;" parent="WIyWlLk6GJQsqaUBKTNV-1" vertex="1">
          <mxGeometry width="1169" height="827" as="geometry" />
        </mxCell>
        <mxCell id="C67oyV5yBOLC5utlYlFn-114" value="" style="edgeStyle=orthogonalEdgeStyle;rounded=0;orthogonalLoop=1;jettySize=auto;html=1;fontSize=14;" parent="WIyWlLk6GJQsqaUBKTNV-1" source="C67oyV5yBOLC5utlYlFn-115" target="C67oyV5yBOLC5utlYlFn-122" edge="1">
          <mxGeometry relative="1" as="geometry" />
        </mxCell>
        <mxCell id="C67oyV5yBOLC5utlYlFn-115" value="&lt;font style=&quot;font-size: 16px;&quot;&gt;Techome&lt;/font&gt;" style="rounded=1;whiteSpace=wrap;html=1;fillColor=#ffe6cc;strokeColor=#d79b00;" parent="WIyWlLk6GJQsqaUBKTNV-1" vertex="1">
          <mxGeometry x="525" y="20" width="120" height="60" as="geometry" />
        </mxCell>
        <mxCell id="C67oyV5yBOLC5utlYlFn-116" style="edgeStyle=orthogonalEdgeStyle;rounded=0;orthogonalLoop=1;jettySize=auto;html=1;fontSize=14;" parent="WIyWlLk6GJQsqaUBKTNV-1" source="C67oyV5yBOLC5utlYlFn-122" target="C67oyV5yBOLC5utlYlFn-137" edge="1">
          <mxGeometry relative="1" as="geometry" />
        </mxCell>
        <mxCell id="C67oyV5yBOLC5utlYlFn-117" style="edgeStyle=orthogonalEdgeStyle;rounded=0;orthogonalLoop=1;jettySize=auto;html=1;entryX=0.5;entryY=0;entryDx=0;entryDy=0;fontSize=14;" parent="WIyWlLk6GJQsqaUBKTNV-1" source="C67oyV5yBOLC5utlYlFn-122" target="C67oyV5yBOLC5utlYlFn-133" edge="1">
          <mxGeometry relative="1" as="geometry" />
        </mxCell>
        <mxCell id="C67oyV5yBOLC5utlYlFn-118" style="edgeStyle=orthogonalEdgeStyle;rounded=0;orthogonalLoop=1;jettySize=auto;html=1;entryX=0.5;entryY=0;entryDx=0;entryDy=0;fontSize=14;" parent="WIyWlLk6GJQsqaUBKTNV-1" source="C67oyV5yBOLC5utlYlFn-122" target="C67oyV5yBOLC5utlYlFn-126" edge="1">
          <mxGeometry relative="1" as="geometry" />
        </mxCell>
        <mxCell id="C67oyV5yBOLC5utlYlFn-119" style="edgeStyle=orthogonalEdgeStyle;rounded=0;orthogonalLoop=1;jettySize=auto;html=1;fontSize=14;" parent="WIyWlLk6GJQsqaUBKTNV-1" source="C67oyV5yBOLC5utlYlFn-122" target="C67oyV5yBOLC5utlYlFn-144" edge="1">
          <mxGeometry relative="1" as="geometry" />
        </mxCell>
        <mxCell id="C67oyV5yBOLC5utlYlFn-120" style="edgeStyle=orthogonalEdgeStyle;rounded=0;orthogonalLoop=1;jettySize=auto;html=1;entryX=0.5;entryY=0;entryDx=0;entryDy=0;fontSize=14;" parent="WIyWlLk6GJQsqaUBKTNV-1" source="C67oyV5yBOLC5utlYlFn-122" target="C67oyV5yBOLC5utlYlFn-148" edge="1">
          <mxGeometry relative="1" as="geometry" />
        </mxCell>
        <mxCell id="C67oyV5yBOLC5utlYlFn-121" style="edgeStyle=orthogonalEdgeStyle;rounded=0;orthogonalLoop=1;jettySize=auto;html=1;fontSize=14;" parent="WIyWlLk6GJQsqaUBKTNV-1" source="C67oyV5yBOLC5utlYlFn-122" target="C67oyV5yBOLC5utlYlFn-152" edge="1">
          <mxGeometry relative="1" as="geometry" />
        </mxCell>
        <mxCell id="C67oyV5yBOLC5utlYlFn-122" value="" style="ellipse;whiteSpace=wrap;html=1;aspect=fixed;fontSize=14;fillColor=#0050ef;fontColor=#ffffff;strokeColor=#001DBC;" parent="WIyWlLk6GJQsqaUBKTNV-1" vertex="1">
          <mxGeometry x="580" y="110" width="10" height="10" as="geometry" />
        </mxCell>
        <mxCell id="C67oyV5yBOLC5utlYlFn-123" value="" style="edgeStyle=orthogonalEdgeStyle;rounded=0;orthogonalLoop=1;jettySize=auto;html=1;fontSize=16;" parent="WIyWlLk6GJQsqaUBKTNV-1" source="C67oyV5yBOLC5utlYlFn-126" target="C67oyV5yBOLC5utlYlFn-153" edge="1">
          <mxGeometry relative="1" as="geometry" />
        </mxCell>
        <mxCell id="C67oyV5yBOLC5utlYlFn-124" style="edgeStyle=orthogonalEdgeStyle;rounded=0;orthogonalLoop=1;jettySize=auto;html=1;fontSize=16;fontColor=#FAFFFD;" parent="WIyWlLk6GJQsqaUBKTNV-1" source="C67oyV5yBOLC5utlYlFn-126" target="C67oyV5yBOLC5utlYlFn-159" edge="1">
          <mxGeometry relative="1" as="geometry">
            <Array as="points">
              <mxPoint x="50" y="200" />
              <mxPoint x="50" y="400" />
            </Array>
          </mxGeometry>
        </mxCell>
        <mxCell id="C67oyV5yBOLC5utlYlFn-125" style="edgeStyle=orthogonalEdgeStyle;rounded=0;orthogonalLoop=1;jettySize=auto;html=1;entryX=0;entryY=0.5;entryDx=0;entryDy=0;fontSize=16;fontColor=#000000;" parent="WIyWlLk6GJQsqaUBKTNV-1" source="C67oyV5yBOLC5utlYlFn-126" target="C67oyV5yBOLC5utlYlFn-160" edge="1">
          <mxGeometry relative="1" as="geometry">
            <Array as="points">
              <mxPoint x="50" y="200" />
              <mxPoint x="50" y="500" />
            </Array>
          </mxGeometry>
        </mxCell>
        <mxCell id="C67oyV5yBOLC5utlYlFn-126" value="&lt;font style=&quot;font-size: 16px;&quot;&gt;About us&lt;/font&gt;" style="rounded=1;whiteSpace=wrap;html=1;fontSize=14;fillColor=#dae8fc;strokeColor=#6c8ebf;gradientColor=#9933FF;gradientDirection=east;" parent="WIyWlLk6GJQsqaUBKTNV-1" vertex="1">
          <mxGeometry x="80" y="170" width="120" height="60" as="geometry" />
        </mxCell>
        <mxCell id="C67oyV5yBOLC5utlYlFn-127" value="" style="edgeStyle=orthogonalEdgeStyle;rounded=0;orthogonalLoop=1;jettySize=auto;html=1;fontSize=16;" parent="WIyWlLk6GJQsqaUBKTNV-1" source="C67oyV5yBOLC5utlYlFn-133" target="C67oyV5yBOLC5utlYlFn-154" edge="1">
          <mxGeometry relative="1" as="geometry" />
        </mxCell>
        <mxCell id="C67oyV5yBOLC5utlYlFn-128" style="edgeStyle=orthogonalEdgeStyle;rounded=0;orthogonalLoop=1;jettySize=auto;html=1;entryX=0;entryY=0.5;entryDx=0;entryDy=0;fontSize=16;fontColor=#000000;" parent="WIyWlLk6GJQsqaUBKTNV-1" source="C67oyV5yBOLC5utlYlFn-133" target="C67oyV5yBOLC5utlYlFn-161" edge="1">
          <mxGeometry relative="1" as="geometry">
            <Array as="points">
              <mxPoint x="240" y="200" />
              <mxPoint x="240" y="400" />
            </Array>
          </mxGeometry>
        </mxCell>
        <mxCell id="C67oyV5yBOLC5utlYlFn-129" style="edgeStyle=orthogonalEdgeStyle;rounded=0;orthogonalLoop=1;jettySize=auto;html=1;entryX=0;entryY=0.5;entryDx=0;entryDy=0;fontSize=16;fontColor=#000000;" parent="WIyWlLk6GJQsqaUBKTNV-1" source="C67oyV5yBOLC5utlYlFn-133" target="C67oyV5yBOLC5utlYlFn-162" edge="1">
          <mxGeometry relative="1" as="geometry">
            <Array as="points">
              <mxPoint x="240" y="200" />
              <mxPoint x="240" y="500" />
            </Array>
          </mxGeometry>
        </mxCell>
        <mxCell id="C67oyV5yBOLC5utlYlFn-130" style="edgeStyle=orthogonalEdgeStyle;rounded=0;orthogonalLoop=1;jettySize=auto;html=1;entryX=0;entryY=0.5;entryDx=0;entryDy=0;fontSize=16;fontColor=#000000;" parent="WIyWlLk6GJQsqaUBKTNV-1" source="C67oyV5yBOLC5utlYlFn-133" target="C67oyV5yBOLC5utlYlFn-164" edge="1">
          <mxGeometry relative="1" as="geometry">
            <Array as="points">
              <mxPoint x="240" y="200" />
              <mxPoint x="240" y="600" />
            </Array>
          </mxGeometry>
        </mxCell>
        <mxCell id="C67oyV5yBOLC5utlYlFn-131" style="edgeStyle=orthogonalEdgeStyle;rounded=0;orthogonalLoop=1;jettySize=auto;html=1;entryX=0;entryY=0.5;entryDx=0;entryDy=0;fontSize=16;fontColor=#000000;" parent="WIyWlLk6GJQsqaUBKTNV-1" source="C67oyV5yBOLC5utlYlFn-133" target="C67oyV5yBOLC5utlYlFn-163" edge="1">
          <mxGeometry relative="1" as="geometry">
            <Array as="points">
              <mxPoint x="240" y="200" />
              <mxPoint x="240" y="700" />
            </Array>
          </mxGeometry>
        </mxCell>
        <mxCell id="C67oyV5yBOLC5utlYlFn-132" style="edgeStyle=orthogonalEdgeStyle;rounded=0;orthogonalLoop=1;jettySize=auto;html=1;entryX=0;entryY=0.5;entryDx=0;entryDy=0;fontSize=16;fontColor=#000000;" parent="WIyWlLk6GJQsqaUBKTNV-1" source="C67oyV5yBOLC5utlYlFn-133" target="C67oyV5yBOLC5utlYlFn-165" edge="1">
          <mxGeometry relative="1" as="geometry">
            <Array as="points">
              <mxPoint x="240" y="200" />
              <mxPoint x="240" y="797" />
            </Array>
          </mxGeometry>
        </mxCell>
        <mxCell id="C67oyV5yBOLC5utlYlFn-133" value="&lt;font style=&quot;font-size: 16px;&quot;&gt;Store&lt;/font&gt;" style="rounded=1;whiteSpace=wrap;html=1;fontSize=14;fillColor=#dae8fc;strokeColor=#6c8ebf;gradientColor=#9933FF;gradientDirection=east;" parent="WIyWlLk6GJQsqaUBKTNV-1" vertex="1">
          <mxGeometry x="260" y="170" width="120" height="60" as="geometry" />
        </mxCell>
        <mxCell id="C67oyV5yBOLC5utlYlFn-134" style="edgeStyle=orthogonalEdgeStyle;rounded=0;orthogonalLoop=1;jettySize=auto;html=1;entryX=0;entryY=0.5;entryDx=0;entryDy=0;fontSize=16;" parent="WIyWlLk6GJQsqaUBKTNV-1" source="C67oyV5yBOLC5utlYlFn-137" target="C67oyV5yBOLC5utlYlFn-155" edge="1">
          <mxGeometry relative="1" as="geometry">
            <Array as="points">
              <mxPoint x="420" y="200" />
              <mxPoint x="420" y="300" />
            </Array>
          </mxGeometry>
        </mxCell>
        <mxCell id="C67oyV5yBOLC5utlYlFn-135" style="edgeStyle=orthogonalEdgeStyle;rounded=0;orthogonalLoop=1;jettySize=auto;html=1;entryX=0;entryY=0.5;entryDx=0;entryDy=0;fontSize=16;" parent="WIyWlLk6GJQsqaUBKTNV-1" source="C67oyV5yBOLC5utlYlFn-137" target="C67oyV5yBOLC5utlYlFn-156" edge="1">
          <mxGeometry relative="1" as="geometry">
            <Array as="points">
              <mxPoint x="420" y="200" />
              <mxPoint x="420" y="400" />
            </Array>
          </mxGeometry>
        </mxCell>
        <mxCell id="C67oyV5yBOLC5utlYlFn-136" style="edgeStyle=orthogonalEdgeStyle;rounded=0;orthogonalLoop=1;jettySize=auto;html=1;entryX=0;entryY=0.5;entryDx=0;entryDy=0;fontSize=16;" parent="WIyWlLk6GJQsqaUBKTNV-1" source="C67oyV5yBOLC5utlYlFn-137" target="C67oyV5yBOLC5utlYlFn-157" edge="1">
          <mxGeometry relative="1" as="geometry">
            <Array as="points">
              <mxPoint x="420" y="200" />
              <mxPoint x="420" y="500" />
            </Array>
          </mxGeometry>
        </mxCell>
        <mxCell id="C67oyV5yBOLC5utlYlFn-137" value="&lt;font style=&quot;font-size: 16px;&quot;&gt;Sign up/Log in&lt;/font&gt;" style="rounded=1;whiteSpace=wrap;html=1;fontSize=14;fillColor=#dae8fc;strokeColor=#6c8ebf;shadow=0;glass=0;fillStyle=auto;gradientColor=#9933FF;gradientDirection=east;" parent="WIyWlLk6GJQsqaUBKTNV-1" vertex="1">
          <mxGeometry x="440" y="170" width="120" height="60" as="geometry" />
        </mxCell>
        <mxCell id="C67oyV5yBOLC5utlYlFn-138" style="edgeStyle=orthogonalEdgeStyle;rounded=0;orthogonalLoop=1;jettySize=auto;html=1;entryX=0;entryY=0.5;entryDx=0;entryDy=0;fontSize=16;fontColor=#000000;" parent="WIyWlLk6GJQsqaUBKTNV-1" source="C67oyV5yBOLC5utlYlFn-144" target="C67oyV5yBOLC5utlYlFn-166" edge="1">
          <mxGeometry relative="1" as="geometry">
            <Array as="points">
              <mxPoint x="600" y="200" />
              <mxPoint x="600" y="300" />
            </Array>
          </mxGeometry>
        </mxCell>
        <mxCell id="C67oyV5yBOLC5utlYlFn-139" style="edgeStyle=orthogonalEdgeStyle;rounded=0;orthogonalLoop=1;jettySize=auto;html=1;entryX=0;entryY=0.5;entryDx=0;entryDy=0;fontSize=16;fontColor=#000000;" parent="WIyWlLk6GJQsqaUBKTNV-1" source="C67oyV5yBOLC5utlYlFn-144" target="C67oyV5yBOLC5utlYlFn-167" edge="1">
          <mxGeometry relative="1" as="geometry">
            <Array as="points">
              <mxPoint x="600" y="200" />
              <mxPoint x="600" y="400" />
            </Array>
          </mxGeometry>
        </mxCell>
        <mxCell id="C67oyV5yBOLC5utlYlFn-140" style="edgeStyle=orthogonalEdgeStyle;rounded=0;orthogonalLoop=1;jettySize=auto;html=1;entryX=0;entryY=0.5;entryDx=0;entryDy=0;fontSize=16;fontColor=#000000;" parent="WIyWlLk6GJQsqaUBKTNV-1" source="C67oyV5yBOLC5utlYlFn-144" target="C67oyV5yBOLC5utlYlFn-168" edge="1">
          <mxGeometry relative="1" as="geometry">
            <Array as="points">
              <mxPoint x="600" y="200" />
              <mxPoint x="600" y="500" />
            </Array>
          </mxGeometry>
        </mxCell>
        <mxCell id="C67oyV5yBOLC5utlYlFn-141" style="edgeStyle=orthogonalEdgeStyle;rounded=0;orthogonalLoop=1;jettySize=auto;html=1;entryX=0;entryY=0.5;entryDx=0;entryDy=0;fontSize=16;fontColor=#000000;" parent="WIyWlLk6GJQsqaUBKTNV-1" source="C67oyV5yBOLC5utlYlFn-144" target="C67oyV5yBOLC5utlYlFn-169" edge="1">
          <mxGeometry relative="1" as="geometry">
            <Array as="points">
              <mxPoint x="600" y="200" />
              <mxPoint x="600" y="600" />
            </Array>
          </mxGeometry>
        </mxCell>
        <mxCell id="C67oyV5yBOLC5utlYlFn-142" style="edgeStyle=orthogonalEdgeStyle;rounded=0;orthogonalLoop=1;jettySize=auto;html=1;entryX=0;entryY=0.5;entryDx=0;entryDy=0;fontSize=16;fontColor=#000000;" parent="WIyWlLk6GJQsqaUBKTNV-1" source="C67oyV5yBOLC5utlYlFn-144" target="C67oyV5yBOLC5utlYlFn-170" edge="1">
          <mxGeometry relative="1" as="geometry">
            <Array as="points">
              <mxPoint x="600" y="200" />
              <mxPoint x="600" y="700" />
            </Array>
          </mxGeometry>
        </mxCell>
        <mxCell id="C67oyV5yBOLC5utlYlFn-143" style="edgeStyle=orthogonalEdgeStyle;rounded=0;orthogonalLoop=1;jettySize=auto;html=1;entryX=0;entryY=0.5;entryDx=0;entryDy=0;fontSize=16;fontColor=#000000;" parent="WIyWlLk6GJQsqaUBKTNV-1" source="C67oyV5yBOLC5utlYlFn-144" target="C67oyV5yBOLC5utlYlFn-171" edge="1">
          <mxGeometry relative="1" as="geometry">
            <Array as="points">
              <mxPoint x="600" y="200" />
              <mxPoint x="600" y="797" />
            </Array>
          </mxGeometry>
        </mxCell>
        <mxCell id="C67oyV5yBOLC5utlYlFn-144" value="&lt;font style=&quot;font-size: 16px;&quot;&gt;My cart&lt;/font&gt;" style="rounded=1;whiteSpace=wrap;html=1;fontSize=14;fillColor=#dae8fc;strokeColor=#6c8ebf;gradientColor=#9933FF;gradientDirection=east;" parent="WIyWlLk6GJQsqaUBKTNV-1" vertex="1">
          <mxGeometry x="620" y="170" width="120" height="60" as="geometry" />
        </mxCell>
        <mxCell id="C67oyV5yBOLC5utlYlFn-145" style="edgeStyle=orthogonalEdgeStyle;rounded=0;orthogonalLoop=1;jettySize=auto;html=1;entryX=0;entryY=0.5;entryDx=0;entryDy=0;fontSize=16;fontColor=#000000;" parent="WIyWlLk6GJQsqaUBKTNV-1" source="C67oyV5yBOLC5utlYlFn-148" target="C67oyV5yBOLC5utlYlFn-172" edge="1">
          <mxGeometry relative="1" as="geometry">
            <Array as="points">
              <mxPoint x="780" y="200" />
              <mxPoint x="780" y="300" />
            </Array>
          </mxGeometry>
        </mxCell>
        <mxCell id="C67oyV5yBOLC5utlYlFn-146" style="edgeStyle=orthogonalEdgeStyle;rounded=0;orthogonalLoop=1;jettySize=auto;html=1;entryX=0;entryY=0.5;entryDx=0;entryDy=0;fontSize=16;fontColor=#000000;" parent="WIyWlLk6GJQsqaUBKTNV-1" source="C67oyV5yBOLC5utlYlFn-148" target="C67oyV5yBOLC5utlYlFn-173" edge="1">
          <mxGeometry relative="1" as="geometry">
            <Array as="points">
              <mxPoint x="780" y="200" />
              <mxPoint x="780" y="400" />
            </Array>
          </mxGeometry>
        </mxCell>
        <mxCell id="C67oyV5yBOLC5utlYlFn-147" style="edgeStyle=orthogonalEdgeStyle;rounded=0;orthogonalLoop=1;jettySize=auto;html=1;entryX=0;entryY=0.5;entryDx=0;entryDy=0;fontSize=16;fontColor=#000000;" parent="WIyWlLk6GJQsqaUBKTNV-1" source="C67oyV5yBOLC5utlYlFn-148" target="C67oyV5yBOLC5utlYlFn-174" edge="1">
          <mxGeometry relative="1" as="geometry">
            <Array as="points">
              <mxPoint x="780" y="200" />
              <mxPoint x="780" y="500" />
            </Array>
          </mxGeometry>
        </mxCell>
        <mxCell id="C67oyV5yBOLC5utlYlFn-148" value="&lt;font style=&quot;font-size: 16px;&quot;&gt;Support&lt;/font&gt;" style="rounded=1;whiteSpace=wrap;html=1;fontSize=14;fillColor=#dae8fc;strokeColor=#6c8ebf;gradientColor=#9933FF;gradientDirection=east;" parent="WIyWlLk6GJQsqaUBKTNV-1" vertex="1">
          <mxGeometry x="800" y="170" width="120" height="60" as="geometry" />
        </mxCell>
        <mxCell id="C67oyV5yBOLC5utlYlFn-149" style="edgeStyle=orthogonalEdgeStyle;rounded=0;orthogonalLoop=1;jettySize=auto;html=1;entryX=0;entryY=0.5;entryDx=0;entryDy=0;fontSize=16;fontColor=#000000;" parent="WIyWlLk6GJQsqaUBKTNV-1" source="C67oyV5yBOLC5utlYlFn-152" target="C67oyV5yBOLC5utlYlFn-176" edge="1">
          <mxGeometry relative="1" as="geometry">
            <Array as="points">
              <mxPoint x="960" y="200" />
              <mxPoint x="960" y="400" />
            </Array>
          </mxGeometry>
        </mxCell>
        <mxCell id="C67oyV5yBOLC5utlYlFn-150" style="edgeStyle=orthogonalEdgeStyle;rounded=0;orthogonalLoop=1;jettySize=auto;html=1;entryX=0;entryY=0.5;entryDx=0;entryDy=0;fontSize=16;fontColor=#000000;" parent="WIyWlLk6GJQsqaUBKTNV-1" source="C67oyV5yBOLC5utlYlFn-152" target="C67oyV5yBOLC5utlYlFn-175" edge="1">
          <mxGeometry relative="1" as="geometry">
            <Array as="points">
              <mxPoint x="960" y="200" />
              <mxPoint x="960" y="300" />
            </Array>
          </mxGeometry>
        </mxCell>
        <mxCell id="C67oyV5yBOLC5utlYlFn-151" style="edgeStyle=orthogonalEdgeStyle;rounded=0;orthogonalLoop=1;jettySize=auto;html=1;entryX=0;entryY=0.5;entryDx=0;entryDy=0;fontSize=16;fontColor=#000000;" parent="WIyWlLk6GJQsqaUBKTNV-1" source="C67oyV5yBOLC5utlYlFn-152" target="C67oyV5yBOLC5utlYlFn-178" edge="1">
          <mxGeometry relative="1" as="geometry">
            <Array as="points">
              <mxPoint x="960" y="200" />
              <mxPoint x="960" y="600" />
            </Array>
          </mxGeometry>
        </mxCell>
        <mxCell id="C67oyV5yBOLC5utlYlFn-152" value="&lt;font style=&quot;font-size: 16px;&quot;&gt;Other pages&lt;/font&gt;" style="rounded=1;whiteSpace=wrap;html=1;fontSize=14;fillColor=#dae8fc;strokeColor=#6c8ebf;gradientColor=#9933FF;gradientDirection=east;" parent="WIyWlLk6GJQsqaUBKTNV-1" vertex="1">
          <mxGeometry x="980" y="170" width="120" height="60" as="geometry" />
        </mxCell>
        <mxCell id="C67oyV5yBOLC5utlYlFn-153" value="&lt;div style=&quot;text-align: left;&quot;&gt;&lt;font size=&quot;3&quot;&gt;About company&lt;/font&gt;&lt;/div&gt;" style="whiteSpace=wrap;html=1;fontSize=14;fillColor=#f5f5f5;strokeColor=#666666;rounded=1;fontColor=#333333;" parent="WIyWlLk6GJQsqaUBKTNV-1" vertex="1">
          <mxGeometry x="80" y="270" width="120" height="60" as="geometry" />
        </mxCell>
        <mxCell id="C67oyV5yBOLC5utlYlFn-154" value="&lt;font size=&quot;3&quot;&gt;About Smart Home&lt;/font&gt;" style="whiteSpace=wrap;html=1;fontSize=14;fillColor=#f5f5f5;strokeColor=#666666;rounded=1;fontColor=#333333;" parent="WIyWlLk6GJQsqaUBKTNV-1" vertex="1">
          <mxGeometry x="260" y="270" width="120" height="60" as="geometry" />
        </mxCell>
        <mxCell id="C67oyV5yBOLC5utlYlFn-155" value="&lt;font size=&quot;3&quot;&gt;User name&lt;br&gt;/Password&lt;br&gt;&lt;/font&gt;" style="whiteSpace=wrap;html=1;fontSize=14;fillColor=#e1d5e7;strokeColor=#9673a6;rounded=1;" parent="WIyWlLk6GJQsqaUBKTNV-1" vertex="1">
          <mxGeometry x="440" y="270" width="120" height="60" as="geometry" />
        </mxCell>
        <mxCell id="C67oyV5yBOLC5utlYlFn-156" value="&lt;font size=&quot;3&quot;&gt;Address&lt;br&gt;&lt;/font&gt;" style="whiteSpace=wrap;html=1;fontSize=14;fillColor=#e1d5e7;strokeColor=#9673a6;rounded=1;" parent="WIyWlLk6GJQsqaUBKTNV-1" vertex="1">
          <mxGeometry x="440" y="370" width="120" height="60" as="geometry" />
        </mxCell>
        <mxCell id="C67oyV5yBOLC5utlYlFn-157" value="&lt;font size=&quot;3&quot;&gt;Credit card&lt;br&gt;&lt;/font&gt;" style="whiteSpace=wrap;html=1;fontSize=14;fillColor=#e1d5e7;strokeColor=#9673a6;rounded=1;" parent="WIyWlLk6GJQsqaUBKTNV-1" vertex="1">
          <mxGeometry x="440" y="470" width="120" height="60" as="geometry" />
        </mxCell>
        <mxCell id="C67oyV5yBOLC5utlYlFn-158" value="&lt;b&gt;&lt;u&gt;Topic : บริษัทที่เกี่ยวกับการผลิตเทคโนโลยีเครื่องใช้ภายในบ้าน&lt;/u&gt;&lt;/b&gt;" style="text;html=1;align=center;verticalAlign=middle;resizable=0;points=[];autosize=1;strokeColor=none;fillColor=#000000;fontSize=16;fontColor=#FAFFFD;" parent="WIyWlLk6GJQsqaUBKTNV-1" vertex="1">
          <mxGeometry x="40" y="35" width="470" height="30" as="geometry" />
        </mxCell>
        <mxCell id="C67oyV5yBOLC5utlYlFn-159" value="&lt;font color=&quot;#000000&quot;&gt;&lt;span style=&quot;font-size: 16px;&quot;&gt;CEO/CO-CEO&lt;/span&gt;&lt;/font&gt;" style="rounded=1;whiteSpace=wrap;html=1;fontSize=14;fillColor=#f5f5f5;strokeColor=#666666;fontColor=#333333;" parent="WIyWlLk6GJQsqaUBKTNV-1" vertex="1">
          <mxGeometry x="80" y="370" width="120" height="60" as="geometry" />
        </mxCell>
        <mxCell id="C67oyV5yBOLC5utlYlFn-160" value="&lt;font style=&quot;font-size: 16px;&quot;&gt;Company history&lt;/font&gt;" style="rounded=1;whiteSpace=wrap;html=1;fontSize=14;fillColor=#f5f5f5;strokeColor=#666666;fontColor=#333333;" parent="WIyWlLk6GJQsqaUBKTNV-1" vertex="1">
          <mxGeometry x="80" y="470" width="120" height="60" as="geometry" />
        </mxCell>
        <mxCell id="C67oyV5yBOLC5utlYlFn-161" value="&lt;font style=&quot;font-size: 16px;&quot;&gt;TV&lt;/font&gt;" style="rounded=1;whiteSpace=wrap;html=1;fontSize=14;fillColor=#e1d5e7;strokeColor=#9673a6;" parent="WIyWlLk6GJQsqaUBKTNV-1" vertex="1">
          <mxGeometry x="260" y="370" width="120" height="60" as="geometry" />
        </mxCell>
        <mxCell id="C67oyV5yBOLC5utlYlFn-162" value="&lt;font style=&quot;font-size: 16px;&quot;&gt;Light bulb&lt;/font&gt;" style="rounded=1;whiteSpace=wrap;html=1;fontSize=14;fillColor=#e1d5e7;strokeColor=#9673a6;" parent="WIyWlLk6GJQsqaUBKTNV-1" vertex="1">
          <mxGeometry x="260" y="470" width="120" height="60" as="geometry" />
        </mxCell>
        <mxCell id="C67oyV5yBOLC5utlYlFn-163" value="&lt;font style=&quot;font-size: 16px;&quot;&gt;CCTV&lt;/font&gt;" style="rounded=1;whiteSpace=wrap;html=1;fontSize=14;fillColor=#e1d5e7;strokeColor=#9673a6;" parent="WIyWlLk6GJQsqaUBKTNV-1" vertex="1">
          <mxGeometry x="260" y="670" width="120" height="60" as="geometry" />
        </mxCell>
        <mxCell id="C67oyV5yBOLC5utlYlFn-164" value="&lt;font style=&quot;font-size: 16px;&quot;&gt;Vacuum&lt;/font&gt;" style="rounded=1;whiteSpace=wrap;html=1;fontSize=14;fillColor=#e1d5e7;strokeColor=#9673a6;" parent="WIyWlLk6GJQsqaUBKTNV-1" vertex="1">
          <mxGeometry x="260" y="570" width="120" height="60" as="geometry" />
        </mxCell>
        <mxCell id="C67oyV5yBOLC5utlYlFn-165" value="&lt;font style=&quot;font-size: 16px;&quot;&gt;Smart remote&lt;/font&gt;" style="rounded=1;whiteSpace=wrap;html=1;fontSize=14;fillColor=#e1d5e7;strokeColor=#9673a6;" parent="WIyWlLk6GJQsqaUBKTNV-1" vertex="1">
          <mxGeometry x="260" y="767" width="120" height="60" as="geometry" />
        </mxCell>
        <mxCell id="C67oyV5yBOLC5utlYlFn-166" value="&lt;font style=&quot;font-size: 16px;&quot;&gt;Product quantity&lt;/font&gt;" style="rounded=1;whiteSpace=wrap;html=1;fontSize=14;fillColor=#e1d5e7;strokeColor=#9673a6;" parent="WIyWlLk6GJQsqaUBKTNV-1" vertex="1">
          <mxGeometry x="620" y="270" width="120" height="60" as="geometry" />
        </mxCell>
        <mxCell id="C67oyV5yBOLC5utlYlFn-167" value="&lt;font style=&quot;font-size: 16px;&quot;&gt;Link to product&lt;/font&gt;" style="rounded=1;whiteSpace=wrap;html=1;fontSize=14;fillColor=#e1d5e7;strokeColor=#9673a6;" parent="WIyWlLk6GJQsqaUBKTNV-1" vertex="1">
          <mxGeometry x="620" y="370" width="120" height="60" as="geometry" />
        </mxCell>
        <mxCell id="C67oyV5yBOLC5utlYlFn-168" value="&lt;font style=&quot;font-size: 16px;&quot;&gt;Clear&lt;/font&gt;" style="rounded=1;whiteSpace=wrap;html=1;fontSize=14;fillColor=#e1d5e7;strokeColor=#9673a6;" parent="WIyWlLk6GJQsqaUBKTNV-1" vertex="1">
          <mxGeometry x="620" y="470" width="120" height="60" as="geometry" />
        </mxCell>
        <mxCell id="C67oyV5yBOLC5utlYlFn-169" value="&lt;font style=&quot;font-size: 16px;&quot;&gt;Checkout&lt;/font&gt;" style="rounded=1;whiteSpace=wrap;html=1;fontSize=14;fillColor=#e1d5e7;strokeColor=#9673a6;" parent="WIyWlLk6GJQsqaUBKTNV-1" vertex="1">
          <mxGeometry x="620" y="570" width="120" height="60" as="geometry" />
        </mxCell>
        <mxCell id="C67oyV5yBOLC5utlYlFn-170" value="&lt;span style=&quot;font-size: 16px;&quot;&gt;Payment methods&lt;/span&gt;" style="rounded=1;whiteSpace=wrap;html=1;fontSize=14;fillColor=#e1d5e7;strokeColor=#9673a6;" parent="WIyWlLk6GJQsqaUBKTNV-1" vertex="1">
          <mxGeometry x="620" y="670" width="120" height="60" as="geometry" />
        </mxCell>
        <mxCell id="C67oyV5yBOLC5utlYlFn-171" value="&lt;font style=&quot;font-size: 16px;&quot;&gt;Address&lt;/font&gt;" style="rounded=1;whiteSpace=wrap;html=1;fontSize=14;fillColor=#e1d5e7;strokeColor=#9673a6;" parent="WIyWlLk6GJQsqaUBKTNV-1" vertex="1">
          <mxGeometry x="620" y="767" width="120" height="60" as="geometry" />
        </mxCell>
        <mxCell id="C67oyV5yBOLC5utlYlFn-172" value="&lt;font style=&quot;font-size: 16px;&quot;&gt;Maintenance&lt;/font&gt;" style="rounded=1;whiteSpace=wrap;html=1;fontSize=14;fillColor=#f5f5f5;strokeColor=#666666;fontColor=#333333;" parent="WIyWlLk6GJQsqaUBKTNV-1" vertex="1">
          <mxGeometry x="800" y="270" width="120" height="60" as="geometry" />
        </mxCell>
        <mxCell id="C67oyV5yBOLC5utlYlFn-173" value="&lt;font style=&quot;font-size: 16px;&quot;&gt;Repair&lt;/font&gt;" style="rounded=1;whiteSpace=wrap;html=1;fontSize=14;fillColor=#f5f5f5;strokeColor=#666666;fontColor=#333333;" parent="WIyWlLk6GJQsqaUBKTNV-1" vertex="1">
          <mxGeometry x="800" y="370" width="120" height="60" as="geometry" />
        </mxCell>
        <mxCell id="C67oyV5yBOLC5utlYlFn-174" value="&lt;font style=&quot;font-size: 16px;&quot;&gt;Forgot User name/Password&lt;/font&gt;" style="rounded=1;whiteSpace=wrap;html=1;fontSize=14;fillColor=#e1d5e7;strokeColor=#9673a6;" parent="WIyWlLk6GJQsqaUBKTNV-1" vertex="1">
          <mxGeometry x="800" y="470" width="120" height="60" as="geometry" />
        </mxCell>
        <mxCell id="C67oyV5yBOLC5utlYlFn-175" value="&lt;font style=&quot;font-size: 16px;&quot;&gt;Facebook&lt;/font&gt;" style="rounded=1;whiteSpace=wrap;html=1;fontSize=14;fillColor=#e1d5e7;strokeColor=#9673a6;" parent="WIyWlLk6GJQsqaUBKTNV-1" vertex="1">
          <mxGeometry x="980" y="270" width="120" height="60" as="geometry" />
        </mxCell>
        <mxCell id="C67oyV5yBOLC5utlYlFn-176" value="&lt;font style=&quot;font-size: 16px;&quot;&gt;Twitter&lt;/font&gt;" style="rounded=1;whiteSpace=wrap;html=1;fontSize=14;fillColor=#e1d5e7;strokeColor=#9673a6;" parent="WIyWlLk6GJQsqaUBKTNV-1" vertex="1">
          <mxGeometry x="980" y="370" width="120" height="60" as="geometry" />
        </mxCell>
        <mxCell id="C67oyV5yBOLC5utlYlFn-177" value="&lt;font style=&quot;font-size: 16px;&quot;&gt;Instagram&lt;/font&gt;" style="rounded=1;whiteSpace=wrap;html=1;fontSize=14;fillColor=#e1d5e7;strokeColor=#9673a6;" parent="WIyWlLk6GJQsqaUBKTNV-1" vertex="1">
          <mxGeometry x="980" y="470" width="120" height="60" as="geometry" />
        </mxCell>
        <mxCell id="C67oyV5yBOLC5utlYlFn-178" value="&lt;font style=&quot;font-size: 16px;&quot;&gt;Blog&lt;/font&gt;" style="rounded=1;whiteSpace=wrap;html=1;fontSize=14;fillColor=#e1d5e7;strokeColor=#9673a6;" parent="WIyWlLk6GJQsqaUBKTNV-1" vertex="1">
          <mxGeometry x="980" y="570" width="120" height="60" as="geometry" />
        </mxCell>
        <mxCell id="C67oyV5yBOLC5utlYlFn-179" style="edgeStyle=orthogonalEdgeStyle;rounded=0;orthogonalLoop=1;jettySize=auto;html=1;entryX=0;entryY=0.5;entryDx=0;entryDy=0;fontSize=16;fontColor=#000000;" parent="WIyWlLk6GJQsqaUBKTNV-1" edge="1">
          <mxGeometry relative="1" as="geometry">
            <mxPoint x="980" y="200" as="sourcePoint" />
            <mxPoint x="980" y="500" as="targetPoint" />
            <Array as="points">
              <mxPoint x="960" y="200" />
              <mxPoint x="960" y="500" />
            </Array>
          </mxGeometry>
        </mxCell>
        <mxCell id="C67oyV5yBOLC5utlYlFn-180" value="" style="rounded=0;whiteSpace=wrap;html=1;fontSize=16;fillColor=#d5e8d4;strokeColor=#82b366;" parent="WIyWlLk6GJQsqaUBKTNV-1" vertex="1">
          <mxGeometry y="567" width="230" height="260" as="geometry" />
        </mxCell>
        <mxCell id="C67oyV5yBOLC5utlYlFn-181" value="Note" style="text;html=1;strokeColor=none;fillColor=none;align=center;verticalAlign=middle;whiteSpace=wrap;rounded=0;fontSize=20;fontColor=#000000;fontStyle=1" parent="WIyWlLk6GJQsqaUBKTNV-1" vertex="1">
          <mxGeometry y="580" width="60" height="30" as="geometry" />
        </mxCell>
        <mxCell id="C67oyV5yBOLC5utlYlFn-182" value="" style="whiteSpace=wrap;html=1;fontSize=14;fillColor=#f5f5f5;strokeColor=#666666;rounded=1;fontColor=#333333;" parent="WIyWlLk6GJQsqaUBKTNV-1" vertex="1">
          <mxGeometry x="10" y="680" width="120" height="60" as="geometry" />
        </mxCell>
        <mxCell id="C67oyV5yBOLC5utlYlFn-183" value="" style="rounded=1;whiteSpace=wrap;html=1;fontSize=14;fillColor=#dae8fc;strokeColor=#6c8ebf;gradientColor=#9933FF;gradientDirection=east;" parent="WIyWlLk6GJQsqaUBKTNV-1" vertex="1">
          <mxGeometry x="10" y="610" width="120" height="60" as="geometry" />
        </mxCell>
        <mxCell id="C67oyV5yBOLC5utlYlFn-184" value="" style="rounded=1;whiteSpace=wrap;html=1;fontSize=14;fillColor=#e1d5e7;strokeColor=#9673a6;" parent="WIyWlLk6GJQsqaUBKTNV-1" vertex="1">
          <mxGeometry x="10" y="750" width="120" height="60" as="geometry" />
        </mxCell>
        <mxCell id="C67oyV5yBOLC5utlYlFn-185" value="&lt;font style=&quot;font-size: 15px;&quot;&gt;Main pages&lt;br&gt;/Link action&lt;/font&gt;" style="text;html=1;strokeColor=none;fillColor=none;align=center;verticalAlign=middle;whiteSpace=wrap;rounded=0;fontSize=20;fontColor=#000000;" parent="WIyWlLk6GJQsqaUBKTNV-1" vertex="1">
          <mxGeometry x="120" y="625" width="120" height="30" as="geometry" />
        </mxCell>
        <mxCell id="C67oyV5yBOLC5utlYlFn-186" value="&lt;font style=&quot;font-size: 15px;&quot;&gt;Page Content&lt;/font&gt;" style="text;html=1;strokeColor=none;fillColor=none;align=center;verticalAlign=middle;whiteSpace=wrap;rounded=0;fontSize=20;fontColor=#000000;" parent="WIyWlLk6GJQsqaUBKTNV-1" vertex="1">
          <mxGeometry x="130" y="695" width="100" height="30" as="geometry" />
        </mxCell>
        <mxCell id="C67oyV5yBOLC5utlYlFn-187" value="&lt;span style=&quot;font-size: 15px;&quot;&gt;Feature&lt;br&gt;/Link action&lt;br&gt;&lt;/span&gt;" style="text;html=1;strokeColor=none;fillColor=none;align=center;verticalAlign=middle;whiteSpace=wrap;rounded=0;fontSize=20;fontColor=#000000;" parent="WIyWlLk6GJQsqaUBKTNV-1" vertex="1">
          <mxGeometry x="130" y="765" width="100" height="30" as="geometry" />
        </mxCell>
        <mxCell id="C67oyV5yBOLC5utlYlFn-188" value="&lt;b&gt;&lt;u&gt;Group 2 : Corporate Website&lt;/u&gt;&lt;/b&gt;" style="text;html=1;align=center;verticalAlign=middle;resizable=0;points=[];autosize=1;strokeColor=none;fillColor=none;fontSize=16;fontColor=#000000;" parent="WIyWlLk6GJQsqaUBKTNV-1" vertex="1">
          <mxGeometry x="929" width="240" height="30" as="geometry" />
        </mxCell>
        <mxCell id="6jE5WWszlNLruCztgc8I-0" value="&lt;font style=&quot;font-size: 16px;&quot;&gt;&lt;b&gt;www.techome.com&lt;/b&gt;&lt;/font&gt;" style="text;html=1;strokeColor=none;fillColor=none;align=center;verticalAlign=middle;whiteSpace=wrap;rounded=0;shadow=0;glass=0;dashed=1;dashPattern=1 1;fillStyle=auto;" vertex="1" parent="WIyWlLk6GJQsqaUBKTNV-1">
          <mxGeometry x="660" y="35" width="140" height="30" as="geometry" />
        </mxCell>
        <mxCell id="6jE5WWszlNLruCztgc8I-1" value="&lt;b&gt;&lt;u&gt;Member&amp;nbsp;&lt;/u&gt;&lt;/b&gt;" style="text;html=1;strokeColor=none;fillColor=none;align=center;verticalAlign=middle;whiteSpace=wrap;rounded=0;shadow=0;glass=0;dashed=1;dashPattern=1 1;fillStyle=auto;fontSize=16;" vertex="1" parent="WIyWlLk6GJQsqaUBKTNV-1">
          <mxGeometry x="890" y="655" width="70" height="30" as="geometry" />
        </mxCell>
        <mxCell id="6jE5WWszlNLruCztgc8I-3" value="1.นายพุฒิกร พัสดุสาร (ก้าว)&lt;br&gt;2.นายนทวรรษ เรณูศิลป์ (เหยา)&lt;br&gt;3.นายอัศวิน วงหาแก้ว (โอม)&lt;br&gt;4.นายเจษฏาภรณ์ เช่นพิมาย (พีช)" style="text;html=1;strokeColor=none;fillColor=none;align=left;verticalAlign=middle;whiteSpace=wrap;rounded=0;shadow=0;glass=0;dashed=1;dashPattern=1 1;fillStyle=auto;fontSize=16;" vertex="1" parent="WIyWlLk6GJQsqaUBKTNV-1">
          <mxGeometry x="890" y="680" width="225" height="90" as="geometry" />
        </mxCell>
      </root>
    </mxGraphModel>
  </diagram>
</mxfile>
